# xmcd
#
# Track frame offsets:
#	150
#	11400
#	26655
#	41075
#	51707
#	67270
#	88897
#	103027
#	112797
#	123617
#	138680
#	158190
#	169332
#
# Disc length: 2383 seconds
#
# Revision: 0
# Processed by: cddbd v1.4PL0 Copyright (c) Steve Scherf et al.
# Submitted via: EasyCDDAExtractor 4.5.0.2
#
DISCID=c0094d0d
DTITLE=Fat John's - country et blues
DYEAR=1900
DGENRE=Blues
TTITLE0=transcontinental express
TTITLE1=celibat blues
TTITLE2=trop dur à dire
TTITLE3=old paf
TTITLE4=bye bye bronx blues
TTITLE5=sur les toits
TTITLE6=dahran chez les tridonautes
TTITLE7=donne moi de l'eau
TTITLE8=mescal
TTITLE9=western swing
TTITLE10=milk cow blues
TTITLE11=les z'haricots
TTITLE12=dueling barjos
EXTD=
EXTT0=
EXTT1=
EXTT2=
EXTT3=
EXTT4=
EXTT5=
EXTT6=
EXTT7=
EXTT8=
EXTT9=
EXTT10=
EXTT11=
EXTT12=
PLAYORDER=
